<?xml version="1.0" standalone="no"?>
<!DOCTYPE svg PUBLIC "-//W3C//DTD SVG 20010904//EN"
 "http://www.w3.org/TR/2001/REC-SVG-20010904/DTD/svg10.dtd">
<svg version="1.0" xmlns="http://www.w3.org/2000/svg"
 width="1600.000000pt" height="1600.000000pt" viewBox="0 0 1600.000000 1600.000000"
 preserveAspectRatio="xMidYMid meet">
<metadata>
Created by potrace 1.14, written by Peter Selinger 2001-2017
</metadata>
<g transform="translate(0.000000,1600.000000) scale(0.100000,-0.100000)"
fill="#000000" stroke="none">
<path d="M3036 11867 c-258 -644 -475 -1185 -482 -1202 -7 -16 -127 -316 -267
-665 -140 -349 -429 -1069 -642 -1600 -213 -531 -395 -985 -405 -1010 -27 -71
-930 -2323 -940 -2345 -36 -77 -299 -749 -296 -753 6 -5 2396 -6 2400 -1 2 4
102 277 382 1047 l77 212 1518 0 1517 0 20 -62 c46 -144 402 -1192 407 -1196
6 -6 4641 -6 4652 1 4 3 7 846 7 1874 -1 1027 0 1876 3 1886 2 9 8 15 12 12 7
-4 158 -239 261 -405 31 -50 497 -789 559 -885 92 -144 110 -173 196 -310 99
-157 147 -234 180 -285 49 -77 131 -207 142 -225 7 -11 63 -100 125 -198 62
-97 120 -188 128 -202 8 -13 49 -78 90 -142 167 -265 411 -650 532 -843 71
-113 141 -223 156 -244 l27 -39 1298 0 c714 1 1300 3 1303 6 3 3 -28 52 -69
109 -40 56 -197 279 -347 493 -295 420 -667 950 -931 1324 -174 247 -198 281
-263 376 -22 33 -44 62 -47 65 -3 3 -30 41 -60 84 -104 153 -551 789 -559 796
-3 3 -9 13 -15 22 -5 9 -125 180 -265 379 -469 666 -510 725 -510 738 0 5 131
206 292 448 160 241 427 643 593 893 166 250 544 820 840 1265 296 446 648
977 783 1180 135 204 276 416 314 473 l69 102 -1177 -2 -1177 -3 -151 -241
c-83 -132 -281 -449 -441 -703 -159 -254 -409 -652 -555 -884 -146 -233 -449
-716 -675 -1075 -225 -359 -419 -668 -430 -686 -94 -156 -212 -336 -220 -336
-8 0 -11 614 -10 1965 l0 1965 -1105 -2 -1105 -3 -31 -205 c-18 -113 -35 -221
-38 -240 -3 -19 -9 -53 -12 -75 -3 -22 -11 -76 -19 -120 -8 -44 -21 -127 -30
-185 -9 -58 -18 -116 -20 -130 -23 -140 -97 -636 -109 -725 -3 -22 -12 -87
-20 -145 -9 -58 -18 -134 -22 -170 -3 -36 -8 -67 -9 -70 -2 -3 -7 -43 -10 -88
-8 -88 -7 -90 42 -71 105 40 1124 262 1138 248 12 -13 -183 -571 -455 -1299
-297 -797 -500 -1372 -500 -1416 0 -8 83 9 233 47 462 118 545 139 555 139 7
0 7 -11 1 -32 -5 -18 -40 -161 -78 -318 -96 -391 -222 -844 -401 -1445 -68
-227 -81 -269 -114 -382 -20 -68 -78 -264 -126 -428 -104 -352 -267 -926 -285
-1005 -2 -8 -22 -88 -45 -178 -23 -90 -43 -171 -45 -180 -2 -9 -15 -64 -29
-122 l-25 -105 5 120 c2 66 7 140 9 165 2 25 7 79 10 120 3 41 8 95 10 120 3
25 12 113 20 195 9 83 17 166 20 185 3 19 7 55 10 80 14 121 17 147 20 170 3
14 7 52 10 85 3 33 8 67 10 75 2 8 7 38 10 65 3 28 7 61 9 75 3 14 7 48 10 75
8 61 28 203 62 435 14 96 28 191 30 210 3 19 9 60 14 90 5 30 12 73 15 95 3
22 12 81 20 130 7 50 16 108 19 130 4 22 11 65 16 95 5 30 12 73 15 95 3 22
10 65 15 95 5 30 12 73 16 95 3 22 8 43 11 48 2 4 0 7 -5 7 -5 0 -233 -82
-508 -181 -522 -190 -676 -245 -784 -284 -36 -13 -72 -26 -81 -29 -14 -6 -14
3 -3 86 7 51 16 113 19 138 3 25 7 56 10 70 2 14 7 48 10 75 3 28 13 100 21
160 8 61 17 124 19 140 2 17 11 82 20 145 9 63 18 131 20 150 2 19 11 85 20
145 15 109 21 152 31 230 2 22 7 51 9 65 2 14 7 48 10 75 3 28 8 61 10 75 4
26 40 292 50 372 l7 48 -69 -29 c-79 -33 -672 -285 -720 -307 -18 -8 -48 -20
-65 -28 -18 -7 -72 -31 -121 -51 -48 -21 -89 -36 -91 -34 -2 2 -7 90 -10 194
-3 105 -8 255 -11 335 -8 211 -14 394 -20 575 -16 495 -24 730 -30 895 -3 74
-7 214 -10 310 -3 96 -8 229 -10 295 -3 66 -7 206 -10 310 -4 105 -8 240 -10
300 -2 61 -7 196 -10 300 -3 105 -8 233 -10 285 -2 52 -7 194 -10 315 -4 121
-8 256 -10 300 -2 44 -4 108 -4 143 l-1 62 -1427 0 -1428 0 -469 -1173z m1384
-1599 c6 -24 13 -50 16 -58 7 -17 132 -428 174 -570 76 -256 122 -409 135
-450 8 -25 66 -216 129 -425 63 -209 182 -605 264 -880 83 -275 154 -512 157
-527 l7 -28 -912 0 c-863 0 -911 1 -906 18 3 9 62 206 131 437 70 231 156 517
192 635 36 118 71 235 78 260 7 25 77 257 155 515 78 259 162 538 187 620 24
83 57 193 73 245 16 52 39 130 52 173 17 58 26 77 40 77 12 0 20 -13 28 -42z"/>
<path d="M559 3702 c-10 -2 -34 -48 -64 -125 -26 -67 -54 -135 -61 -152 -55
-125 -433 -1079 -429 -1085 5 -8 361 -7 370 2 3 3 21 46 39 95 l33 88 235 3
236 2 33 -97 34 -98 175 -1 c96 -1 183 0 192 3 17 4 18 3 -32 118 -5 11 -95
238 -200 505 -105 267 -196 494 -201 505 -5 11 -28 69 -52 130 l-44 109 -124
1 c-68 0 -131 -1 -140 -3z m215 -723 c25 -86 46 -159 46 -162 0 -3 -61 -5
-135 -5 -76 0 -135 4 -135 9 0 6 9 38 19 72 11 34 34 109 51 167 17 58 39 129
48 159 l16 55 22 -70 c12 -38 43 -139 68 -225z"/>
<path d="M3253 3696 c-5 -7 -8 -1259 -4 -1347 1 -14 22 -16 174 -15 l172 1 3
294 2 294 187 -295 186 -294 201 0 c138 1 200 4 199 12 -1 6 -106 158 -232
338 -127 180 -231 331 -231 336 0 5 99 159 220 341 121 182 218 334 216 338
-3 5 -277 7 -347 2 -10 -1 -89 -117 -205 -302 l-189 -301 -5 303 -5 304 -168
0 c-95 0 -171 -4 -174 -9z"/>
<path d="M4481 3695 c-4 -5 -7 -314 -6 -685 l0 -675 145 -1 c80 0 150 1 156 3
8 3 11 95 12 304 0 165 3 317 7 338 10 59 56 107 113 120 84 18 150 -8 185
-74 21 -38 22 -54 24 -350 1 -170 2 -317 3 -326 0 -13 20 -15 153 -15 l152 1
3 335 c3 366 -4 453 -45 535 -60 122 -162 185 -308 191 -116 4 -218 -32 -264
-93 l-20 -28 -1 40 c-1 22 -1 118 -1 213 0 125 -4 172 -12 173 -73 6 -290 2
-296 -6z"/>
<path d="M9911 3700 c-6 -4 -8 -1318 -3 -1355 1 -8 122 -11 374 -10 l372 0 1
58 c1 32 -3 61 -8 64 -5 3 -143 6 -306 6 l-296 0 0 248 0 249 95 1 c52 0 184
0 293 0 108 0 198 3 198 7 4 24 5 99 1 110 -3 9 -71 12 -296 12 l-291 0 1 233
c1 127 2 237 3 242 1 7 107 10 303 10 l302 0 1 63 c2 50 -1 62 -14 63 -54 4
-724 3 -730 -1z"/>
<path d="M10842 3020 l3 -685 65 0 65 0 0 678 c0 442 -3 681 -10 685 -5 3 -36
6 -68 7 l-57 0 2 -685z"/>
<path d="M13639 3701 c-14 -5 -16 -30 -15 -179 l1 -172 -60 -1 c-33 0 -82 0
-108 1 l-48 2 3 -64 3 -63 104 0 105 0 0 -445 1 -445 66 0 67 -1 0 416 c0 228
1 429 1 446 l1 30 111 0 c61 -1 115 2 121 5 5 3 8 30 6 60 l-3 54 -114 2 c-63
2 -116 5 -119 8 -3 2 -5 81 -5 175 1 121 -2 170 -11 171 -63 5 -93 5 -107 0z"/>
<path d="M14660 3701 c-12 -5 -15 -29 -15 -118 -1 -125 -5 -119 80 -118 l50 0
0 120 0 119 -50 2 c-28 0 -57 -2 -65 -5z"/>
<path d="M1965 3394 c-85 -22 -122 -40 -166 -85 l-47 -48 2 45 c2 33 -2 47
-13 52 -9 4 -74 7 -146 6 l-130 -1 0 -514 0 -514 153 -1 c103 0 152 3 153 10
0 6 1 151 2 321 2 301 3 311 25 357 27 54 69 79 141 82 69 3 118 -25 144 -82
19 -44 21 -67 23 -362 1 -173 2 -318 3 -321 1 -4 260 -5 297 0 8 1 10 109 9
374 -2 403 -6 442 -60 527 -32 51 -103 107 -164 131 -50 19 -187 33 -226 23z"/>
<path d="M6005 3393 c-198 -38 -333 -153 -403 -341 -33 -90 -41 -248 -18 -346
38 -159 140 -294 269 -355 185 -88 425 -57 515 66 l19 27 0 -40 c1 -77 -13
-71 153 -70 144 0 151 1 155 21 2 11 3 242 3 513 -1 442 -3 492 -17 493 -85 4
-269 3 -281 -2 -11 -5 -15 -21 -14 -54 l1 -47 -21 25 c-30 35 -84 71 -136 91
-42 17 -179 28 -225 19z m242 -314 c181 -88 182 -367 2 -461 -59 -31 -154 -34
-215 -6 -186 82 -207 340 -38 456 67 45 170 50 251 11z"/>
<path d="M7361 3384 c-55 -15 -107 -48 -148 -94 l-22 -25 -1 48 c0 35 -4 47
-15 48 -20 1 -240 1 -262 0 -17 -1 -18 -32 -17 -513 l2 -513 153 0 154 0 5
330 c5 309 6 332 25 365 30 50 74 72 146 72 69 0 101 -17 133 -71 23 -39 25
-78 26 -421 l0 -276 155 0 155 0 -1 370 c-1 321 -3 380 -18 437 -41 154 -166
247 -341 254 -43 2 -98 -3 -129 -11z"/>
<path d="M8435 3393 c-143 -18 -275 -105 -357 -234 -105 -164 -115 -428 -23
-592 34 -59 124 -159 170 -187 149 -92 352 -103 475 -25 20 13 49 38 65 56
l28 34 -6 -67 c-14 -163 -105 -244 -262 -233 -65 5 -105 24 -138 66 l-25 32
-172 1 c-131 1 -174 -2 -177 -12 -3 -7 5 -40 18 -75 18 -48 38 -77 88 -128
113 -113 229 -151 436 -145 98 3 135 8 200 30 128 44 234 120 287 206 21 35
46 116 54 175 11 84 10 1065 -1 1066 -13 1 -277 1 -292 0 -8 -1 -13 -17 -13
-43 l0 -42 -32 31 c-37 35 -98 67 -144 77 -41 9 -141 14 -179 9z m225 -316
c170 -87 176 -361 8 -452 -64 -35 -143 -41 -212 -14 -61 23 -86 46 -122 112
-54 99 -39 221 35 300 80 86 189 106 291 54z"/>
<path d="M12840 3373 c-117 -9 -214 -44 -303 -111 -265 -200 -286 -583 -44
-808 66 -61 173 -116 264 -134 57 -11 198 -10 248 3 94 25 172 68 239 134 44
43 126 155 126 173 0 4 -32 6 -71 6 l-70 -1 -34 -46 c-78 -108 -168 -151 -315
-153 -115 -1 -175 17 -258 78 -190 140 -220 421 -64 597 89 100 198 144 342
137 131 -6 233 -62 297 -163 l28 -45 74 0 c84 0 83 -3 28 89 -92 153 -298 257
-487 244z"/>
<path d="M15393 3363 c-177 -32 -342 -169 -404 -334 -26 -67 -31 -102 -31
-196 1 -178 83 -330 236 -433 82 -56 156 -79 273 -87 159 -11 305 41 413 148
50 49 120 148 120 170 0 3 -31 6 -69 5 l-68 -1 -38 -50 c-21 -27 -48 -58 -59
-67 -74 -65 -216 -99 -328 -81 -190 32 -329 179 -344 364 -9 104 19 222 63
267 7 7 13 18 13 22 0 5 30 34 66 64 90 74 170 100 293 94 75 -3 99 -9 154
-36 64 -32 137 -99 160 -149 9 -21 17 -23 84 -23 73 0 74 1 67 23 -33 105
-181 238 -313 282 -76 25 -205 33 -288 18z"/>
<path d="M11550 3360 c-89 -18 -170 -68 -256 -157 -100 -104 -144 -217 -144
-371 0 -147 55 -271 167 -378 204 -195 523 -191 725 9 56 55 128 165 128 196
0 7 -25 11 -68 11 l-69 0 -17 -38 c-36 -80 -131 -156 -233 -186 -209 -60 -438
76 -489 291 l-12 53 461 2 462 3 0 50 c2 119 -64 274 -155 366 -111 112 -224
160 -373 158 -51 -1 -108 -5 -127 -9z m246 -127 c130 -44 225 -145 260 -275
l12 -48 -390 0 -391 0 6 35 c19 117 141 251 263 288 66 21 179 21 240 0z"/>
<path d="M14433 3360 c-18 -4 -47 -15 -66 -23 -37 -18 -107 -89 -107 -109 0
-6 -3 -8 -7 -4 -4 4 -7 32 -8 64 l0 57 -65 0 -65 0 0 -505 0 -505 55 -1 c30
-1 60 1 65 3 7 2 11 112 11 331 1 214 5 341 12 368 27 95 95 156 200 182 49
11 72 22 73 32 0 8 1 39 2 68 l2 52 -35 -1 c-19 -1 -49 -4 -67 -9z"/>
<path d="M14648 3343 c-3 -7 -2 -966 1 -1000 1 -8 21 -11 64 -10 l62 3 3 507
2 507 -64 0 c-36 0 -66 -3 -68 -7z"/>
</g>
</svg>
